<?xml version="1.0" standalone="no"?>
<!DOCTYPE svg PUBLIC "-//W3C//DTD SVG 20010904//EN"
 "http://www.w3.org/TR/2001/REC-SVG-20010904/DTD/svg10.dtd">
<svg version="1.0" xmlns="http://www.w3.org/2000/svg"
 width="1408.000000pt" height="768.000000pt" viewBox="0 0 1408.000000 768.000000"
 preserveAspectRatio="xMidYMid meet">

<g transform="translate(0.000000,768.000000) scale(0.100000,-0.100000)"
fill="#000000" stroke="none">
<path d="M6820 6479 c-190 -16 -428 -67 -609 -131 -531 -187 -1026 -587 -1333
-1075 -498 -792 -543 -1799 -118 -2661 145 -294 328 -535 580 -766 593 -542
1396 -769 2155 -610 66 14 170 42 230 61 111 36 328 123 322 130 -2 2 -69 -12
-148 -31 -166 -40 -240 -52 -406 -66 -220 -19 -522 19 -744 93 -217 73 -366
156 -494 279 -176 166 -257 340 -258 548 0 150 43 279 134 395 43 55 341 360
835 856 l325 326 237 -239 c230 -233 237 -239 244 -211 7 27 77 470 157 998
22 143 58 377 81 520 22 143 40 266 40 272 0 7 -7 13 -15 13 -8 0 -15 -5 -15
-12 0 -6 -219 -232 -487 -500 -358 -359 -493 -488 -506 -484 -14 3 -16 0 -12
-14 5 -16 1 -18 -33 -15 -36 3 -39 2 -34 -21 3 -19 0 -24 -17 -24 -11 0 -21
-4 -21 -10 0 -5 -5 -10 -11 -10 -8 0 -8 4 0 14 9 11 9 15 -1 19 -7 2 -2 2 10
0 15 -2 21 0 17 7 -3 5 -2 10 3 10 5 0 8 10 6 23 -4 33 -4 33 -15 14 -5 -9 -7
-22 -4 -27 3 -6 1 -10 -4 -10 -6 0 -11 5 -11 10 0 6 -7 10 -15 10 -9 0 -18 7
-21 15 -4 8 -12 15 -19 15 -8 0 -12 8 -10 20 4 23 -28 45 -52 36 -13 -6 -14
-4 -3 10 12 13 11 17 -1 25 -11 7 -11 9 -1 9 10 0 10 4 -2 16 -9 8 -16 18 -16
20 0 7 40 -16 41 -24 3 -29 10 -46 21 -53 21 -13 33 8 14 26 -9 9 -14 20 -11
25 3 5 -2 10 -12 12 -15 3 -15 4 1 21 10 9 13 17 7 17 -5 0 -14 -7 -19 -16 -7
-13 -11 -14 -23 -2 -16 15 -49 20 -49 8 0 -5 5 -10 12 -12 7 -3 5 -7 -6 -11
-10 -4 -15 -3 -11 3 3 6 1 10 -6 10 -10 0 -10 3 -2 11 12 12 7 39 -8 39 -5 0
-9 -7 -9 -15 0 -8 -4 -15 -10 -15 -5 0 -2 15 8 34 10 20 18 28 20 20 2 -8 11
-13 19 -12 9 2 18 -3 20 -10 3 -7 -1 -10 -11 -6 -18 7 -22 -11 -6 -21 17 -10
42 15 30 30 -5 6 -7 15 -3 18 3 4 -2 7 -12 7 -10 0 -31 15 -47 34 -16 19 -35
33 -42 30 -7 -3 -19 3 -27 12 -8 10 -9 15 -3 11 7 -4 11 4 11 22 0 27 -1 28
-26 15 -22 -11 -28 -11 -43 3 -12 11 -15 19 -8 23 7 5 6 11 -4 19 -11 9 -15 9
-18 -1 -3 -8 -7 -6 -11 6 -4 10 -3 15 3 11 6 -3 10 3 10 14 0 18 9 25 30 23 3
0 7 9 7 21 2 17 0 19 -7 7 -9 -14 -14 -7 -11 13 1 5 -3 6 -9 2 -5 -3 -10 1
-10 11 0 11 -6 15 -20 11 -19 -5 -26 8 -21 36 2 14 -43 3 -57 -13 -12 -13 -13
-12 -9 7 3 12 0 24 -6 26 -11 3 -1 58 11 55 4 -1 17 3 30 10 12 7 30 12 40 11
9 -1 28 3 42 8 25 11 128 28 143 25 4 -1 7 5 7 13 0 8 8 15 18 15 10 0 22 3
26 7 4 4 17 8 29 9 12 1 36 7 53 12 17 5 50 8 75 6 30 -2 38 0 24 5 -17 7 -14
10 20 19 22 6 60 13 85 17 94 13 106 15 145 26 22 6 122 28 223 49 169 36 244
55 182 47 -14 -2 -319 -62 -678 -133 l-652 -129 212 -212 212 -213 -299 -302
c-868 -877 -863 -873 -987 -914 -82 -27 -215 -17 -300 23 -143 67 -233 208
-289 453 -22 97 -39 416 -20 390 6 -8 11 -32 11 -52 0 -21 9 -81 19 -135 60
-309 218 -524 404 -549 26 -4 47 -4 47 -1 0 3 -14 61 -30 129 -97 395 -105
745 -24 1106 131 588 496 1118 994 1447 257 170 546 286 821 330 143 22 147
24 45 20 -74 -4 -86 -2 -76 9 9 12 7 14 -7 11 -10 -2 -25 -4 -33 -5 -11 -1 -9
-4 4 -9 18 -7 18 -8 3 -14 -9 -3 -17 -2 -17 3 0 5 -13 7 -30 5 -16 -2 -32 0
-35 5 -3 5 4 7 15 5 12 -2 28 -1 36 2 13 5 13 8 2 15 -9 6 -5 7 11 3 14 -4 21
-3 18 3 -9 13 -89 12 -106 -2 -12 -9 -13 -8 -6 3 6 11 1 13 -26 8 -19 -4 -41
-2 -49 3 -13 8 -12 10 3 10 9 0 16 5 15 12 -2 8 9 12 30 12 17 0 32 3 32 7 0
9 509 4 560 -5 38 -6 68 -13 103 -22 60 -16 108 -24 167 -29 36 -3 74 -10 85
-15 18 -8 113 -35 160 -46 52 -11 -80 40 -182 71 -290 88 -617 121 -933 94z
m-115 -90 c-10 -15 -25 -10 -19 6 4 8 10 12 15 9 5 -3 7 -10 4 -15z m45 11 c0
-5 -8 -10 -17 -10 -15 0 -16 2 -3 10 19 12 20 12 20 0z m8 -27 c-10 -2 -26 -2
-35 0 -10 3 -2 5 17 5 19 0 27 -2 18 -5z m112 -57 c0 -2 -9 -6 -20 -9 -11 -3
-18 -1 -14 4 5 9 34 13 34 5z m-442 -1589 c2 -19 -1 -27 -12 -27 -9 0 -16 5
-16 10 0 6 5 10 10 10 6 0 10 5 10 11 0 5 -4 8 -8 5 -5 -3 -9 2 -9 10 0 25 22
9 25 -19z m59 -17 c2 -23 -12 -27 -20 -6 -3 8 -1 17 6 20 7 2 12 5 12 5 1 1 1
-8 2 -19z m77 -59 c3 -5 -1 -12 -10 -15 -20 -8 -29 -1 -19 13 8 13 22 14 29 2z
m130 -206 c3 -8 3 -15 0 -15 -3 0 -12 7 -20 15 -13 13 -13 15 -1 15 8 0 17 -7
21 -15z m306 -303 c0 -9 -40 -47 -75 -72 -11 -8 -2 6 20 32 39 45 55 57 55 40z"/>
<path d="M7225 6360 l-60 -7 55 0 c30 -1 96 2 145 6 l90 8 -85 0 c-47 0 -112
-3 -145 -7z"/>
<path d="M7513 6353 c9 -2 23 -2 30 0 6 3 -1 5 -18 5 -16 0 -22 -2 -12 -5z"/>
<path d="M7628 6343 c6 -2 18 -2 25 0 6 3 1 5 -13 5 -14 0 -19 -2 -12 -5z"/>
<path d="M8010 6285 c16 -9 19 -15 10 -15 -8 -1 30 -18 85 -39 55 -20 110 -43
123 -49 12 -7 22 -10 22 -7 0 7 -241 125 -255 125 -5 -1 1 -7 15 -15z"/>
<path d="M7155 6194 c-303 -36 -613 -151 -870 -322 -316 -210 -547 -464 -728
-802 -47 -87 -100 -200 -93 -200 2 0 27 37 56 81 266 410 693 702 1166 798
343 70 666 40 1029 -94 l20 -8 -20 17 c-19 16 -19 16 8 10 15 -3 27 -2 27 4 0
5 -30 12 -67 15 -37 3 -69 10 -71 16 -2 6 -7 9 -11 7 -4 -3 -13 -1 -21 5 -23
14 13 12 45 -3 21 -9 29 -9 41 4 14 14 13 15 -10 11 -15 -3 -26 -1 -26 6 0 6
3 11 8 11 4 0 7 13 7 29 1 16 -3 27 -7 25 -4 -3 -8 -16 -8 -30 0 -22 -4 -24
-42 -23 -36 0 -39 2 -20 9 26 11 28 25 5 39 -17 10 -17 10 0 11 9 0 17 -4 17
-10 0 -5 5 -10 11 -10 5 0 7 5 3 12 -5 7 -3 8 6 3 7 -4 16 -2 20 5 7 11 13 10
34 -3 21 -14 27 -15 39 -3 9 9 19 11 28 5 12 -8 12 -10 -1 -19 -9 -6 -10 -10
-3 -10 21 0 43 12 37 21 -9 15 13 10 26 -7 11 -12 11 -15 0 -12 -7 2 -15 -4
-18 -12 -2 -8 -1 -12 3 -8 5 4 15 2 23 -5 9 -6 13 -7 10 -2 -4 6 0 19 9 30 15
20 15 20 12 0 -1 -11 1 -28 6 -38 4 -10 2 -24 -6 -34 -12 -14 -12 -16 0 -9 8
5 16 3 22 -5 4 -7 11 -10 14 -7 4 4 3 13 -1 20 -16 26 -11 45 9 40 15 -4 18
-2 12 8 -6 9 -4 11 4 6 7 -5 10 -14 7 -22 -3 -8 0 -14 6 -14 9 0 9 -3 0 -12
-8 -8 -15 -8 -28 3 -16 13 -16 12 -4 -8 11 -17 18 -19 37 -12 28 11 33 -14 6
-30 -10 -6 -13 -11 -7 -11 5 0 15 5 21 11 8 8 15 4 26 -12 14 -19 18 -20 34
-8 10 7 15 9 11 5 -4 -5 -3 -15 3 -22 12 -15 3 -37 -12 -28 -5 3 -7 9 -5 12 2
4 -7 12 -20 19 -17 8 -26 8 -31 1 -4 -7 -1 -8 7 -3 10 6 12 4 7 -9 -4 -11 -1
-19 11 -22 9 -3 25 -10 35 -15 10 -6 17 -6 17 0 0 5 16 8 35 5 24 -3 35 0 35
8 1 8 6 5 15 -6 8 -10 19 -15 26 -10 8 4 10 3 5 -4 -4 -7 -1 -12 8 -12 10 0
13 -6 9 -16 -3 -9 -9 -12 -12 -7 -3 4 -16 17 -28 27 -23 19 -23 19 -23 -2 0
-14 5 -20 13 -16 17 6 52 -32 37 -41 -5 -3 -8 -11 -5 -16 9 -14 25 -11 25 6 0
14 10 18 27 13 4 -2 6 -10 5 -19 -2 -12 5 -16 25 -15 21 1 31 -6 42 -29 8 -16
18 -31 23 -33 4 -2 8 -11 8 -20 0 -15 -2 -15 -10 -2 -5 8 -10 10 -10 5 0 -6 5
-16 12 -23 8 -8 8 -15 3 -21 -14 -14 -44 -18 -42 -6 1 5 6 9 10 7 5 -1 6 2 2
8 -5 8 -11 7 -21 -1 -8 -6 -14 -8 -14 -3 0 5 -18 20 -40 34 -22 13 -40 30 -40
38 0 7 -4 11 -9 8 -5 -3 -14 1 -21 9 -7 8 -18 15 -24 15 -6 0 -24 11 -39 24
-16 13 -38 31 -50 40 -19 13 -20 17 -7 25 12 9 10 11 -10 12 -14 1 -29 1 -33
0 -5 -1 -6 3 -3 8 3 5 -1 14 -9 21 -13 11 -14 10 -9 -4 3 -9 1 -16 -5 -16 -6
0 -11 5 -11 10 0 6 -12 10 -27 11 -16 0 -22 3 -15 6 19 8 14 23 -9 23 -12 0
-17 -4 -14 -11 5 -7 1 -7 -14 0 -12 6 -30 16 -41 21 -11 6 -25 10 -32 10 -7 0
37 -27 99 -59 370 -194 649 -480 839 -861 99 -200 157 -388 190 -615 18 -131
21 -395 4 -515 -43 -316 -161 -622 -339 -874 l-83 -117 234 -237 c128 -130
240 -237 248 -237 21 0 200 211 275 325 260 391 395 861 395 1375 0 844 -373
1565 -1040 2009 -427 285 -925 408 -1415 350z m465 -54 c25 5 47 7 50 5 3 -2
23 -6 45 -9 91 -13 172 -28 207 -38 20 -6 43 -8 52 -5 8 3 18 2 21 -3 3 -5 13
-9 23 -9 34 -1 82 -13 82 -22 0 -5 9 -9 20 -9 11 0 20 -4 20 -10 0 -5 7 -10
15 -10 8 0 23 -4 33 -9 9 -5 32 -16 50 -23 17 -7 32 -16 32 -20 0 -5 10 -8 23
-8 12 0 31 -7 41 -15 10 -8 23 -12 27 -9 5 3 9 1 9 -4 0 -5 17 -14 38 -20 21
-7 47 -21 57 -32 10 -11 24 -20 32 -20 7 0 13 -4 13 -10 0 -5 5 -10 10 -10 14
0 182 -111 233 -153 123 -102 307 -296 367 -387 8 -12 20 -28 26 -34 16 -17
118 -177 131 -206 13 -30 23 -58 22 -66 0 -4 4 -10 9 -13 13 -8 98 -178 117
-236 9 -25 17 -59 18 -75 1 -16 5 -30 8 -30 8 0 36 -111 45 -172 3 -26 9 -46
13 -44 13 8 26 -48 26 -106 0 -32 3 -58 6 -58 3 0 7 -66 8 -146 2 -157 -2
-173 -48 -175 -18 0 -21 -2 -10 -7 12 -5 14 -13 8 -27 -4 -11 -8 -15 -8 -8 -1
18 -34 8 -42 -13 -4 -10 -8 -15 -8 -10 -1 5 -7 3 -14 -3 -11 -8 -18 -6 -32 9
-10 11 -15 20 -10 20 4 0 13 -7 19 -16 11 -14 13 -14 25 0 10 12 10 16 2 16
-7 0 -10 4 -6 9 3 6 -6 7 -23 2 -32 -10 -66 4 -56 21 4 7 2 8 -4 4 -6 -4 -9
-13 -6 -20 4 -10 -2 -12 -20 -9 -15 3 -26 1 -26 -6 0 -5 7 -8 15 -5 9 4 18 -1
21 -10 6 -15 8 -16 24 -1 16 14 18 14 23 0 4 -10 0 -15 -11 -16 -9 0 -27 -2
-39 -3 -13 -2 -23 1 -23 5 0 5 -6 6 -13 3 -10 -3 -14 9 -16 48 -1 29 -6 91
-12 138 -34 291 -98 511 -219 758 -297 605 -823 1012 -1485 1147 -77 16 -116
23 -142 24 -7 1 -10 8 -7 16 4 10 0 15 -14 15 -11 0 -23 -6 -25 -12 -3 -7 -6
-2 -6 12 -1 33 14 57 24 40 4 -7 1 -16 -6 -22 -10 -6 -7 -7 9 -3 13 4 29 1 38
-6 8 -6 17 -9 21 -5 3 3 1 6 -5 6 -7 0 -12 6 -12 14 0 9 8 13 23 10 12 -2 16
-2 10 2 -7 3 -13 15 -12 27 0 12 3 16 6 10 9 -24 23 -13 13 11 -7 20 -6 23 9
19 10 -2 33 0 52 5 19 5 36 5 39 1 3 -4 25 -4 50 1z m-209 -23 c-6 -8 -8 -17
-4 -20 3 -4 12 1 19 11 12 16 13 15 14 -6 0 -13 -4 -20 -10 -17 -5 3 -10 1
-10 -6 0 -7 -6 -4 -14 7 -13 17 -6 44 11 44 3 0 0 -6 -6 -13z m182 -258 c5 -3
2 -9 -7 -12 -12 -5 -16 0 -16 15 0 12 3 17 8 12 4 -5 11 -12 15 -15z m-49 -4
c4 -13 2 -14 -14 -5 -23 13 -26 20 -6 20 8 0 16 -7 20 -15z m221 -13 c-3 -3
-11 0 -18 7 -9 10 -8 11 6 5 10 -3 15 -9 12 -12z m-275 -32 c-21 -29 -40 -32
-40 -7 0 7 4 6 10 -3 7 -12 10 -11 16 5 7 17 22 34 32 35 2 0 -6 -14 -18 -30z
m325 10 c-3 -5 -12 -10 -18 -10 -7 0 -6 4 3 10 19 12 23 12 15 0z m75 -2 c0
-11 -28 -10 -35 1 -3 6 4 9 15 8 11 -1 20 -5 20 -9z m-350 -26 c0 -13 -9 -18
-31 -20 -20 -2 -28 1 -24 8 4 6 13 9 21 6 8 -3 14 1 14 9 0 8 5 15 10 15 6 0
10 -8 10 -18z m-126 -18 c3 -8 -8 -9 -35 -4 -55 10 -62 21 -11 18 23 -2 44 -8
46 -14z m565 -63 c19 -26 19 -29 4 -26 -10 1 -17 8 -15 15 1 7 -3 18 -9 26 -6
8 -9 14 -6 14 3 0 15 -13 26 -29z m61 5 c0 -2 -7 -7 -16 -10 -8 -3 -12 -2 -9
4 6 10 25 14 25 6z m0 -97 c0 -5 -5 -9 -11 -9 -5 0 -7 5 -4 10 3 6 1 10 -4 10
-6 0 -11 5 -11 11 0 8 5 8 15 -1 8 -7 15 -16 15 -21z m57 5 c-3 -3 -12 -4 -19
-1 -8 3 -5 6 6 6 11 1 17 -2 13 -5z m103 -84 c0 -5 -7 -7 -15 -4 -8 4 -15 8
-15 10 0 2 7 4 15 4 8 0 15 -4 15 -10z m234 -375 c3 -8 1 -15 -4 -15 -6 0 -10
7 -10 15 0 8 2 15 4 15 2 0 6 -7 10 -15z m36 -40 c0 -8 -2 -15 -4 -15 -2 0 -6
7 -10 15 -3 8 -1 15 4 15 6 0 10 -7 10 -15z m1080 -1184 c0 -5 -7 -11 -14 -14
-10 -4 -13 -1 -9 9 6 15 23 19 23 5z m-20 -41 c0 -5 -2 -10 -4 -10 -3 0 -8 5
-11 10 -3 6 -1 10 4 10 6 0 11 -4 11 -10z"/>
<path d="M9495 3980 c3 -5 12 -7 20 -3 21 7 19 13 -6 13 -11 0 -18 -4 -14 -10z"/>
<path d="M9286 3965 c-3 -9 -6 -22 -5 -28 0 -7 5 -1 10 12 5 13 8 26 5 28 -2
2 -6 -3 -10 -12z"/>
<path d="M9370 3943 c0 -7 5 -13 10 -13 6 0 10 5 10 11 0 5 5 7 10 4 6 -3 10
-2 10 4 0 5 -9 9 -20 8 -11 -1 -20 -7 -20 -14z"/>
<path d="M8216 5424 c-22 -22 -20 -25 9 -12 14 6 25 15 25 20 0 13 -17 9 -34
-8z"/>
<path d="M7978 5163 c6 -2 18 -2 25 0 6 3 1 5 -13 5 -14 0 -19 -2 -12 -5z"/>
<path d="M7938 5153 c7 -3 16 -2 19 1 4 3 -2 6 -13 5 -11 0 -14 -3 -6 -6z"/>
<path d="M7752 5123 c-132 -28 -159 -43 -40 -24 79 13 216 50 183 49 -11 0
-75 -12 -143 -25z"/>
<path d="M6695 4501 c-3 -5 -2 -12 3 -15 5 -3 9 1 9 9 0 17 -3 19 -12 6z"/>
<path d="M6735 4471 c-3 -5 -2 -12 3 -15 5 -3 9 1 9 9 0 17 -3 19 -12 6z"/>
<path d="M6849 4239 c-8 -5 -6 -12 9 -25 12 -10 18 -22 15 -28 -3 -6 0 -5 8 2
12 11 12 14 0 22 -12 6 -12 12 -3 23 9 11 9 14 -3 14 -8 0 -20 -4 -26 -8z"/>
<path d="M6926 4222 c6 -4 14 -14 17 -22 4 -10 6 -8 6 8 1 15 -5 22 -16 22
-11 0 -14 -3 -7 -8z"/>
<path d="M6895 4180 c-3 -5 -1 -10 4 -10 6 0 11 5 11 10 0 6 -2 10 -4 10 -3 0
-8 -4 -11 -10z"/>
<path d="M7245 3480 c-18 -20 -8 -29 11 -10 13 13 219 -195 209 -210 -3 -5 -1
-10 5 -10 19 0 69 -43 63 -54 -3 -6 -3 -8 2 -4 10 9 34 -21 35 -42 0 -9 14
-30 30 -49 17 -18 28 -37 24 -42 -3 -5 -1 -8 5 -7 6 2 17 -8 24 -22 8 -14 20
-23 28 -22 8 2 11 0 7 -4 -4 -4 -3 -13 3 -21 6 -7 8 -14 3 -14 -44 -6 -72 -5
-68 2 7 13 -10 11 -23 -2 -8 -8 -18 -3 -37 17 -21 23 -28 26 -38 16 -11 -11
-9 -12 5 -6 17 6 18 5 6 -14 -10 -15 -17 -18 -26 -11 -7 6 -16 8 -22 5 -5 -3
-22 -1 -38 6 -15 6 -32 10 -38 9 -5 0 -1 5 9 14 10 8 23 12 27 9 5 -3 9 0 9 7
0 7 3 9 7 5 5 -4 -1 -14 -11 -22 -15 -11 -16 -14 -5 -14 9 0 21 11 27 24 12
27 10 28 -51 7 -21 -7 -41 -10 -44 -7 -4 3 -14 -1 -24 -10 -20 -18 -26 -15
-91 51 -35 35 -41 38 -49 23 -9 -16 -13 -15 -45 15 -57 52 -73 54 -24 4 35
-37 49 -45 67 -41 14 4 23 2 23 -5 0 -6 -5 -11 -11 -11 -5 0 -7 -5 -3 -11 5
-8 10 -6 16 5 8 14 13 15 24 5 21 -17 17 -31 -6 -24 -27 9 -25 -7 5 -35 14
-13 25 -27 25 -31 0 -4 -63 56 -139 134 l-139 141 69 69 c38 38 69 74 69 80 0
12 -235 -219 -346 -340 l-76 -83 456 -462 457 -462 -48 -19 c-70 -27 -224 -64
-344 -81 -337 -50 -691 16 -1006 186 -51 27 -93 46 -93 41 0 -22 52 -160 76
-200 36 -61 146 -177 219 -228 139 -98 375 -194 575 -231 132 -25 501 -26 645
-1 124 22 266 60 366 98 l76 29 49 -21 c27 -12 81 -32 119 -46 154 -53 174
-55 595 -60 l395 -4 -220 223 c-121 122 -546 550 -944 950 -398 400 -727 730
-730 735 -4 4 -29 30 -57 56 -50 47 -50 48 -69 27z m65 -500 c0 -5 -2 -10 -4
-10 -3 0 -8 5 -11 10 -3 6 -1 10 4 10 6 0 11 -4 11 -10z m415 -61 c-10 -15
-25 -10 -19 6 4 8 10 12 15 9 5 -3 7 -10 4 -15z m25 -19 c0 -5 -2 -10 -4 -10
-3 0 -8 5 -11 10 -3 6 -1 10 4 10 6 0 11 -4 11 -10z"/>
<path d="M7190 3419 c0 -5 5 -7 10 -4 6 3 10 8 10 11 0 2 -4 4 -10 4 -5 0 -10
-5 -10 -11z"/>
<path d="M7160 3389 c0 -5 5 -7 10 -4 6 3 10 8 10 11 0 2 -4 4 -10 4 -5 0 -10
-5 -10 -11z"/>
<path d="M7185 3110 c-3 -5 1 -10 10 -10 9 0 13 5 10 10 -3 6 -8 10 -10 10 -2
0 -7 -4 -10 -10z"/>
<path d="M7500 3018 c0 -4 4 -8 9 -8 6 0 12 4 15 8 3 5 -1 9 -9 9 -8 0 -15 -4
-15 -9z"/>
</g>
</svg>
